<svg viewBox="0 0 747 432" fill="none" xmlns="http://www.w3.org/2000/svg">
<path d="M592.012 283.844H633.114L656.894 432H747L677.208 0H617.062L491.562 247.598H492.085H393.155L382.013 283.844H473.091L397.991 432H446.57L521.871 283.985L521.671 283.844H592.012V247.598H540.217L540.416 247.513L606.519 117.579L627.332 247.598H627.257H592.012V283.844Z" fill="white"/>
<path d="M208.188 283.844H239.388L262.011 432H347.962L281.425 0H224.109L104.367 247.598H104.914H10.5272L0 283.844H86.8537L15.1608 432H61.4985L133.31 283.985L133.144 283.844H208.188L202.675 247.598H150.8L150.99 247.513L214.009 117.579L233.852 247.598H202.675L208.188 283.844Z" fill="white"/>
</svg>
